HIERARCHY
ROOT Junyuan_V1:Solving:Hips
{
	OFFSET 0.000000 0.000000 0.000000
	CHANNELS 6 Xposition Yposition Zposition Xrotation Yrotation Zrotation
	JOINT Junyuan_V1:Solving:Spine
	{
		OFFSET 0.000000 -11.180205 2.228564
		CHANNELS 6 Xposition Yposition Zposition Xrotation Yrotation Zrotation
		JOINT Junyuan_V1:Solving:Spine1
		{
			OFFSET 0.000000 -8.682996 1.531049
			CHANNELS 6 Xposition Yposition Zposition Xrotation Yrotation Zrotation
			JOINT Junyuan_V1:Solving:Spine2
			{
				OFFSET 0.000000 -8.783394 0.768450
				CHANNELS 6 Xposition Yposition Zposition Xrotation Yrotation Zrotation
				JOINT Junyuan_V1:Solving:Spine3
				{
					OFFSET 0.000000 -8.816944 0.000000
					CHANNELS 6 Xposition Yposition Zposition Xrotation Yrotation Zrotation
					JOINT Junyuan_V1:Solving:Neck
					{
						OFFSET 0.000000 -11.336071 -1.133605
						CHANNELS 6 Xposition Yposition Zposition Xrotation Yrotation Zrotation
						JOINT Junyuan_V1:Solving:Neck1
						{
							OFFSET 0.000000 -7.643246 -0.668695
							CHANNELS 6 Xposition Yposition Zposition Xrotation Yrotation Zrotation
							JOINT Junyuan_V1:Solving:Head
							{
								OFFSET 0.000000 -7.555870 -1.332303
								CHANNELS 6 Xposition Yposition Zposition Xrotation Yrotation Zrotation
								JOINT Junyuan_V1:Solving:HeadEnd
								{
									OFFSET 0.000000 -9.728081 0.000002
									CHANNELS 6 Xposition Yposition Zposition Xrotation Yrotation Zrotation
									End Site
									{
										OFFSET 0.000000 -9.728081 0.000002
									}
								}
							}
						}
					}
					JOINT Junyuan_V1:Solving:RightShoulder
					{
						OFFSET 0.000000 -8.097195 -5.270916
						CHANNELS 6 Xposition Yposition Zposition Xrotation Yrotation Zrotation
						JOINT Junyuan_V1:Solving:RightArm
						{
							OFFSET -20.762394 -0.000008 0.000000
							CHANNELS 6 Xposition Yposition Zposition Xrotation Yrotation Zrotation
							JOINT Junyuan_V1:Solving:RightForeArm
							{
								OFFSET -29.048946 -0.000008 0.000000
								CHANNELS 6 Xposition Yposition Zposition Xrotation Yrotation Zrotation
								JOINT Junyuan_V1:Solving:RightHand
								{
									OFFSET -22.031235 -0.000008 0.000000
									CHANNELS 6 Xposition Yposition Zposition Xrotation Yrotation Zrotation
									JOINT Junyuan_V1:Solving:RightHandThumb1
									{
										OFFSET -3.579254 2.890213 -2.661497
										CHANNELS 6 Xposition Yposition Zposition Xrotation Yrotation Zrotation
										End Site
										{
											OFFSET -5.229485 0.000000 -5.277840
										}
									}
									JOINT Junyuan_V1:Solving:RightHandMiddle1
									{
										OFFSET -9.544678 -0.000004 0.061184
										CHANNELS 6 Xposition Yposition Zposition Xrotation Yrotation Zrotation
										End Site
										{
											OFFSET -7.429878 -0.000004 0.000000
										}
									}
								}
							}
						}
					}
					JOINT Junyuan_V1:Solving:LeftShoulder
					{
						OFFSET 0.000000 -8.097195 -5.270916
						CHANNELS 6 Xposition Yposition Zposition Xrotation Yrotation Zrotation
						JOINT Junyuan_V1:Solving:LeftArm
						{
							OFFSET 20.762394 -0.000008 0.000000
							CHANNELS 6 Xposition Yposition Zposition Xrotation Yrotation Zrotation
							JOINT Junyuan_V1:Solving:LeftForeArm
							{
								OFFSET 29.048946 -0.000008 0.000000
								CHANNELS 6 Xposition Yposition Zposition Xrotation Yrotation Zrotation
								JOINT Junyuan_V1:Solving:LeftHand
								{
									OFFSET 22.031235 -0.000008 0.000000
									CHANNELS 6 Xposition Yposition Zposition Xrotation Yrotation Zrotation
									JOINT Junyuan_V1:Solving:LeftHandThumb1
									{
										OFFSET 3.579254 2.890213 -2.661497
										CHANNELS 6 Xposition Yposition Zposition Xrotation Yrotation Zrotation
										End Site
										{
											OFFSET 5.229485 0.000000 -5.277840
										}
									}
									JOINT Junyuan_V1:Solving:LeftHandMiddle1
									{
										OFFSET 9.544678 -0.000004 0.061184
										CHANNELS 6 Xposition Yposition Zposition Xrotation Yrotation Zrotation
										End Site
										{
											OFFSET 7.429878 -0.000004 0.000000
										}
									}
								}
							}
						}
					}
				}
			}
		}
	}
	JOINT Junyuan_V1:Solving:RightUpLeg
	{
		OFFSET -10.825166 0.000000 0.000000
		CHANNELS 6 Xposition Yposition Zposition Xrotation Yrotation Zrotation
		JOINT Junyuan_V1:Solving:RightLeg
		{
			OFFSET 0.000000 43.678444 -0.000006
			CHANNELS 6 Xposition Yposition Zposition Xrotation Yrotation Zrotation
			JOINT Junyuan_V1:Solving:RightFoot
			{
				OFFSET 0.000000 36.488441 -0.000006
				CHANNELS 6 Xposition Yposition Zposition Xrotation Yrotation Zrotation
				JOINT Junyuan_V1:Solving:RightForeFoot
				{
					OFFSET 0.000000 3.967834 -0.000000
					CHANNELS 6 Xposition Yposition Zposition Xrotation Yrotation Zrotation
					JOINT Junyuan_V1:Solving:RightToeBase
					{
						OFFSET 0.000000 0.000000 -15.539299
						CHANNELS 6 Xposition Yposition Zposition Xrotation Yrotation Zrotation
						JOINT Junyuan_V1:Solving:RightToeBaseEnd
						{
							OFFSET 0.000000 0.000000 -3.486985
							CHANNELS 6 Xposition Yposition Zposition Xrotation Yrotation Zrotation
							End Site
							{
								OFFSET 0.000000 -3.486992 0.000000
							}
						}
					}
				}
			}
		}
	}
	JOINT Junyuan_V1:Solving:LeftUpLeg
	{
		OFFSET 10.825166 0.000000 0.000000
		CHANNELS 6 Xposition Yposition Zposition Xrotation Yrotation Zrotation
		JOINT Junyuan_V1:Solving:LeftLeg
		{
			OFFSET 0.000000 43.678444 -0.000006
			CHANNELS 6 Xposition Yposition Zposition Xrotation Yrotation Zrotation
			JOINT Junyuan_V1:Solving:LeftFoot
			{
				OFFSET 0.000000 36.488441 -0.000006
				CHANNELS 6 Xposition Yposition Zposition Xrotation Yrotation Zrotation
				JOINT Junyuan_V1:Solving:LeftForeFoot
				{
					OFFSET 0.000000 3.967834 -0.000000
					CHANNELS 6 Xposition Yposition Zposition Xrotation Yrotation Zrotation
					JOINT Junyuan_V1:Solving:LeftToeBase
					{
						OFFSET 0.000000 0.000000 -15.539299
						CHANNELS 6 Xposition Yposition Zposition Xrotation Yrotation Zrotation
						JOINT Junyuan_V1:Solving:LeftToeBaseEnd
						{
							OFFSET 0.000000 0.000000 -3.974441
							CHANNELS 6 Xposition Yposition Zposition Xrotation Yrotation Zrotation
							End Site
							{
								OFFSET 0.000000 -3.974442 0.000000
							}
						}
					}
				}
			}
		}
	}
}
MOTION
Frames: 4
Frame Time: 0.041667
-25.858570 -34.284676 -81.071335 61.103460 -183.016476 1.992674 0.000007 -11.180216 2.228559 14.558669 1.048579 0.317816 0.000001 -8.682983 1.531044 12.708106 0.166331 -0.567467 0.000001 -8.783387 0.768455 15.838502 -3.825063 -4.759080 0.000001 -8.816940 0.000012 -6.845412 -0.387267 -1.204947 0.000002 -11.336070 -1.133590 -37.904306 -9.018170 1.627714 -0.000002 -7.643235 -0.668704 17.414824 -2.590905 2.373010 0.000001 -7.555882 -1.332311 5.656532 -0.175449 0.242177 0.000002 -9.728096 -0.000003 0.000001 -0.000000 0.000000 0.000004 -8.097187 -5.270901 0.000002 8.651422 21.363905 -20.762388 -0.000004 0.000027 -62.394352 -1.680136 -98.841457 -29.048946 -0.000015 -0.000026 -50.883297 -48.653749 -42.713828 -22.031219 -0.000003 -0.000013 -2.394490 5.292283 24.387211 -3.579251 2.890218 -2.661498 0.000001 -0.000005 0.000004 -9.544688 -0.000003 0.061194 -0.000003 0.000005 -0.000004 0.000003 -8.097198 -5.270895 0.000003 -13.814800 -13.284119 20.762411 -0.000017 0.000013 -59.780076 2.445007 91.247892 29.048960 -0.000009 -0.000012 -59.455198 39.402084 47.088041 22.031244 -0.000035 -0.000011 -3.027821 -6.230376 -25.983851 3.579280 2.890216 -2.661490 0.000003 0.000003 -0.000006 9.544692 -0.000017 0.061192 0.000003 -0.000000 -0.000001 -10.825164 -0.000020 -0.000001 -59.710402 5.807720 14.595093 -0.000001 43.678429 -0.000013 42.040535 0.000000 0.000002 0.000000 36.488461 -0.000021 -2.674347 17.411556 -6.031463 0.000001 3.967819 0.000003 0.000001 0.000004 -0.000000 -0.000001 0.000006 -15.539303 8.903975 0.000005 0.000000 -0.000005 -0.000007 -3.486987 0.000002 0.000004 -0.000000 10.825174 -0.000016 -0.000004 -68.912388 -16.292947 -32.323846 0.000004 43.678440 0.000006 42.275405 0.000000 0.000002 -0.000004 36.488422 0.000015 -1.519650 0.691654 10.894287 0.000004 3.967827 0.000011 0.000000 -0.000001 0.000001 -0.000004 -0.000016 -15.539300 -2.828457 -0.000001 0.000001 0.000009 -0.000008 -3.974449 -0.000000 -0.000001 0.000000 
-26.362684 -34.390965 -80.910431 61.278620 -183.047239 2.070015 -0.000003 -11.180193 2.228569 14.599215 1.030607 0.349537 0.000005 -8.683003 1.531067 12.691751 0.159458 -0.555681 -0.000000 -8.783396 0.768465 15.737220 -3.857013 -4.572605 -0.000003 -8.816946 -0.000002 -6.853879 -0.364104 -1.201867 0.000004 -11.336065 -1.133627 -37.911522 -9.183929 1.762579 0.000008 -7.643250 -0.668701 17.452383 -2.570581 2.317333 0.000003 -7.555879 -1.332302 5.679704 -0.173057 0.239237 0.000002 -9.728111 -0.000000 0.000005 0.000000 -0.000000 0.000002 -8.097176 -5.270934 0.000003 8.662303 21.433069 -20.762388 0.000003 0.000001 -62.306625 -1.517280 -98.869994 -29.048954 -0.000009 -0.000001 -51.366390 -48.736627 -43.243253 -22.031210 -0.000009 -0.000024 -2.370228 5.246074 24.355922 -3.579250 2.890221 -2.661489 -0.000002 -0.000005 0.000005 -9.544680 0.000002 0.061197 -0.000005 -0.000006 -0.000003 0.000004 -8.097176 -5.270926 -0.000006 -13.937362 -13.306863 20.762383 0.000006 0.000009 -59.821932 2.224856 91.123985 29.048965 0.000004 -0.000005 -59.733556 39.620917 47.538103 22.031256 -0.000012 -0.000011 -3.005042 -6.240542 -25.777074 3.579245 2.890210 -2.661501 0.000001 0.000000 -0.000003 9.544688 0.000004 0.061179 0.000002 -0.000001 0.000004 -10.825166 0.000023 0.000010 -59.536068 5.635577 14.852709 0.000001 43.678436 0.000012 42.234287 -0.000001 0.000001 0.000001 36.488449 -0.000016 -2.762049 17.661711 -6.298538 0.000001 3.967834 0.000004 0.000001 0.000002 0.000001 -0.000001 0.000007 -15.539304 9.022821 -0.000006 0.000003 -0.000001 -0.000008 -3.486982 -0.000001 0.000002 0.000001 10.825158 0.000028 -0.000001 -68.224601 -15.676512 -32.450792 0.000011 43.678440 0.000010 40.616560 -0.000000 0.000003 0.000003 36.488415 -0.000010 -1.690225 -0.071586 10.468038 -0.000004 3.967834 0.000018 0.000000 -0.000006 -0.000000 0.000004 0.000000 -15.539306 -2.724840 -0.000003 -0.000000 -0.000001 -0.000008 -3.974445 -0.000000 -0.000002 -0.000000 
-26.876722 -34.489857 -80.716728 61.412710 -183.071213 2.164164 0.000003 -11.180209 2.228560 14.612717 1.009987 0.365197 0.000002 -8.683007 1.531043 12.656475 0.155496 -0.543619 0.000002 -8.783399 0.768464 15.650356 -3.851326 -4.381161 -0.000003 -8.816923 -0.000005 -6.857950 -0.347701 -1.186550 0.000002 -11.336061 -1.133616 -37.949429 -9.316894 1.823124 -0.000007 -7.643254 -0.668692 17.506337 -2.552222 2.314728 0.000007 -7.555837 -1.332309 5.711404 -0.172958 0.243775 0.000004 -9.728081 0.000003 0.000002 -0.000002 0.000000 0.000001 -8.097183 -5.270927 0.000003 8.651931 21.468615 -20.762396 0.000005 -0.000012 -62.244689 -1.448277 -98.890484 -29.048965 -0.000018 -0.000012 -51.466230 -49.046991 -43.480687 -22.031246 -0.000014 -0.000006 -2.386612 5.219506 24.614328 -3.579255 2.890214 -2.661472 0.000000 0.000003 0.000009 -9.544701 -0.000001 0.061198 -0.000001 -0.000001 -0.000000 0.000001 -8.097179 -5.270928 -0.000005 -14.060703 -13.310868 20.762390 -0.000000 0.000009 -59.855598 2.027332 90.931463 29.048952 -0.000019 -0.000021 -59.753951 40.114422 47.855577 22.031239 -0.000017 0.000000 -3.129340 -6.565630 -25.554267 3.579267 2.890222 -2.661503 0.000004 0.000005 -0.000003 9.544675 0.000000 0.061171 0.000007 0.000001 -0.000004 -10.825166 -0.000010 0.000009 -59.451032 5.480292 15.136090 -0.000003 43.678440 -0.000004 42.501921 -0.000001 0.000004 -0.000004 36.488445 -0.000011 -2.909472 17.799873 -6.477756 0.000007 3.967827 -0.000009 0.000001 0.000003 -0.000000 0.000003 0.000001 -15.539306 9.321397 0.000000 0.000001 0.000003 -0.000008 -3.487001 -0.000002 -0.000010 0.000002 10.825163 0.000003 0.000006 -67.632458 -15.094033 -32.604970 0.000010 43.678440 -0.000009 39.004936 0.000003 -0.000000 0.000006 36.488449 0.000006 -1.798319 -0.559064 10.114568 0.000004 3.967827 0.000004 -0.000000 -0.000000 -0.000001 -0.000008 -0.000005 -15.539306 -2.768146 0.000005 0.000002 0.000008 -0.000000 -3.974438 -0.000001 -0.000000 0.000000 
-27.410160 -34.572906 -80.495163 61.521898 -183.062184 2.277207 -0.000005 -11.180207 2.228573 14.585024 0.984116 0.378367 0.000002 -8.683002 1.531052 12.602614 0.149098 -0.528374 0.000000 -8.783391 0.768442 15.666164 -3.870263 -4.202485 0.000001 -8.816951 0.000004 -6.817783 -0.346780 -1.177157 0.000002 -11.336091 -1.133622 -37.942398 -9.457500 1.984757 0.000001 -7.643238 -0.668680 17.311992 -2.533966 2.254092 -0.000002 -7.555851 -1.332304 5.795082 -0.173728 0.246737 0.000002 -9.728081 -0.000010 0.000007 0.000000 -0.000000 0.000004 -8.097214 -5.270922 0.000004 8.710050 21.572323 -20.762386 -0.000013 -0.000011 -62.322997 -1.369557 -98.944907 -29.048937 -0.000014 -0.000002 -51.892256 -49.167745 -43.970343 -22.031242 -0.000010 0.000002 -2.368264 5.166971 24.665644 -3.579273 2.890215 -2.661500 0.000004 -0.000000 0.000006 -9.544696 0.000006 0.061186 0.000001 0.000000 -0.000004 0.000001 -8.097210 -5.270922 -0.000004 -14.235982 -13.359885 20.762405 -0.000006 0.000005 -59.985262 1.754218 90.825526 29.048946 -0.000017 -0.000009 -59.377280 40.976323 47.927793 22.031248 -0.000005 -0.000002 -3.482844 -7.278256 -25.659740 3.579278 2.890214 -2.661496 0.000004 0.000005 -0.000009 9.544714 0.000000 0.061171 0.000000 -0.000008 -0.000002 -10.825171 -0.000005 0.000009 -59.426116 5.384542 15.429121 -0.000001 43.678432 0.000006 42.771181 0.000001 0.000002 -0.000001 36.488449 -0.000014 -3.037685 17.818587 -6.712797 0.000005 3.967834 0.000001 0.000000 0.000002 -0.000000 0.000008 -0.000004 -15.539306 9.495175 -0.000003 0.000001 0.000003 -0.000008 -3.486993 -0.000001 -0.000005 0.000000 10.825176 -0.000007 0.000004 -67.118971 -14.601080 -32.783539 0.000004 43.678440 -0.000003 37.430663 0.000001 0.000004 0.000011 36.488434 -0.000006 -1.936618 -0.872774 9.836294 0.000003 3.967827 -0.000022 -0.000000 -0.000002 -0.000001 0.000005 -0.000016 -15.539318 -2.746244 -0.000003 -0.000002 -0.000010 -0.000009 -3.974443 -0.000003 0.000001 -0.000001 
